<?xml version="1.0" standalone="no"?><!DOCTYPE svg PUBLIC "-//W3C//DTD SVG 1.1//EN" "http://www.w3.org/Graphics/SVG/1.1/DTD/svg11.dtd"><svg t="1545739255371" class="icon" style="" viewBox="0 0 1024 1024" version="1.1" xmlns="http://www.w3.org/2000/svg" p-id="10239" xmlns:xlink="http://www.w3.org/1999/xlink" width="200" height="200"><defs><style type="text/css"></style></defs><path d="M951.508 428.803c-4.681-3.771-10.561-5.85-16.555-5.85-8.085 0-15.615 3.628-20.661 9.954l-28.9 36.24c-1.398-14.098-3.534-28.103-6.376-41.783-9.912-47.915-27.821-93.104-53.229-134.31-24.551-39.818-55.48-74.963-91.928-104.458-73.172-59.213-164.876-91.822-258.224-91.822-28.217 0-56.657 2.963-84.528 8.806-54.519 11.431-105.182 33.267-150.583 64.901-43.85 30.552-80.969 68.909-110.327 114.006-29.356 45.095-49.475 94.659-59.797 147.317-10.687 54.52-10.349 109.979 1.002 164.844 9.911 47.907 27.819 93.092 53.224 134.297 24.549 39.815 55.477 74.961 91.922 104.455 73.169 59.217 164.867 91.827 258.203 91.827 28.236 0 56.694-2.967 84.584-8.817 77.304-16.201 148.301-55.03 205.297-112.262l0.081-0.074c0.215-0.195 0.427-0.397 0.643-0.627 0.846-0.881 1.375-1.754 1.765-2.396 0.177-0.291 0.358-0.591 0.457-0.692l0.396-0.416 0.292-0.494c2.231-3.774 3.411-7.826 3.411-11.717 0-12.566-10.172-22.789-22.675-22.789-4.807 0-9.363 1.541-13.209 4.414l-0.294-0.25-3.262 3.271c-50.285 50.42-113.161 84.677-181.831 99.07-24.601 5.157-49.7 7.772-74.602 7.772-171.282 0.002-320.985-122.707-355.958-291.774C78.9 391.642 205.463 197.193 401.973 155.989c24.595-5.156 49.687-7.771 74.581-7.771 171.292 0 321.002 122.707 355.979 291.773 2.309 11.126 4.131 22.429 5.441 33.74l-35.3-28.519c-4.687-3.78-10.568-5.862-16.562-5.862-8.073 0-15.602 3.628-20.654 9.953-9.112 11.418-7.292 28.192 4.057 37.394l83.604 67.528 0.097 0c5.285 3.722 11.895 5.402 18.328 4.628 7.045-0.722 13.363-4.138 17.825-9.634l0.36-0.373 0.133-0.252 65.716-82.395C964.677 454.763 962.855 437.99 951.508 428.803z" p-id="10240"></path></svg>