<?xml version="1.0" standalone="no"?><!DOCTYPE svg PUBLIC "-//W3C//DTD SVG 1.1//EN" "http://www.w3.org/Graphics/SVG/1.1/DTD/svg11.dtd"><svg t="1545739441577" class="icon" style="" viewBox="0 0 1024 1024" version="1.1" xmlns="http://www.w3.org/2000/svg" p-id="13575" xmlns:xlink="http://www.w3.org/1999/xlink" width="200" height="200"><defs><style type="text/css"></style></defs><path d="M511.998465 405.040966c-59.07035 0-106.95801 47.88766-106.95801 106.95801 0 59.071374 47.88766 106.959034 106.95801 106.959034 59.072397 0 106.959034-47.888683 106.959034-106.959034C618.957499 452.92965 571.069839 405.040966 511.998465 405.040966zM889.500215 442.790732c-38.229696 0-69.209268 30.990828-69.209268 69.208245s30.978549 69.209268 69.209268 69.209268c38.22765 0 69.209268-30.991852 69.209268-69.209268S927.728888 442.790732 889.500215 442.790732zM134.498762 442.790732c-38.229696 0-69.208245 30.990828-69.208245 69.208245s30.978549 69.209268 69.208245 69.209268c38.228673 0 69.208245-30.991852 69.208245-69.209268S172.727435 442.790732 134.498762 442.790732z" p-id="13576"></path></svg>