<?xml version="1.0" standalone="no"?><!DOCTYPE svg PUBLIC "-//W3C//DTD SVG 1.1//EN" "http://www.w3.org/Graphics/SVG/1.1/DTD/svg11.dtd"><svg t="1545739313299" class="icon" style="" viewBox="0 0 1024 1024" version="1.1" xmlns="http://www.w3.org/2000/svg" p-id="11980" xmlns:xlink="http://www.w3.org/1999/xlink" width="200" height="200"><defs><style type="text/css"></style></defs><path d="M810.666667 576C775.253333 576 746.666667 547.413333 746.666667 512 746.666667 476.586667 775.253333 448 810.666667 448 846.08 448 874.666667 476.586667 874.666667 512 874.666667 547.413333 846.08 576 810.666667 576M597.333333 576C561.92 576 533.333333 547.413333 533.333333 512 533.333333 476.586667 561.92 448 597.333333 448 632.746667 448 661.333333 476.586667 661.333333 512 661.333333 547.413333 632.746667 576 597.333333 576M384 576C348.586667 576 320 547.413333 320 512 320 476.586667 348.586667 448 384 448 419.413333 448 448 476.586667 448 512 448 547.413333 419.413333 576 384 576M938.666667 128 298.666667 128C269.226667 128 246.186667 142.933333 230.826667 165.546667L0 512 230.826667 858.026667C246.186667 880.64 271.786667 896 301.226667 896L938.666667 896C985.6 896 1024 857.6 1024 810.666667L1024 213.333333C1024 165.973333 985.6 128 938.666667 128Z" p-id="11981"></path></svg>